<?xml version="1.0" encoding="utf-8"?>
<!-- Generator: Adobe Illustrator 24.3.0, SVG Export Plug-In . SVG Version: 6.00 Build 0)  -->
<svg version="1.1" id="Layer_1" xmlns="http://www.w3.org/2000/svg" xmlns:xlink="http://www.w3.org/1999/xlink" x="0px" y="0px"
	 viewBox="0 0 64 64" style="enable-background:new 0 0 64 64;" xml:space="preserve">
<style type="text/css">
	.st0{fill:#FFFFFF;stroke:#000000;stroke-miterlimit:10;}
</style>
<path class="st0" d="M40.65,25.09H23.28c-1.45,0-2.62-1.18-2.62-2.62V4.74c0-1.45,1.18-2.62,2.62-2.62h17.36
	c1.45,0,2.62,1.18,2.62,2.62v17.73C43.27,23.92,42.1,25.09,40.65,25.09z"/>
<path class="st0" d="M54.47,43.15H8.88c-2.43,0-4.41-1.97-4.41-4.41v-9.77c0-2.43,1.97-4.41,4.41-4.41h45.59
	c2.43,0,4.41,1.97,4.41,4.41v9.77C58.88,41.18,56.9,43.15,54.47,43.15z"/>
<rect x="16.29" y="40.14" class="st0" width="30.76" height="10.13"/>
<rect x="43.68" y="37.5" class="st0" width="4.19" height="0.73"/>
<rect x="19.01" y="42.86" class="st0" width="25.92" height="0.88"/>
<rect x="19.01" y="46.75" class="st0" width="25.92" height="0.59"/>
</svg>
